<?xml version="1.0"?>
<svg xmlns="http://www.w3.org/2000/svg" version="1.2" baseProfile="tiny" width="300" height="31" viewBox="0 0 300 31" stroke-linecap="butt" stroke-linejoin="round">
<style>
  path {shape-rendering: crispEdges;}
</style>
<g id="layer8">
<path d="M 1 10.93 1 1 43.57 1 43.57 10.93 1 10.93 Z" fill="#f2f0f7"/>
<path d="M 43.57 10.93 43.57 1 86.14 1 86.14 10.93 43.57 10.93 Z" fill="#dadaeb"/>
<path d="M 86.14 10.93 86.14 1 128.71 1 128.71 10.93 86.14 10.93 Z" fill="#bcbddc"/>
<path d="M 128.71 10.93 128.71 1 171.29 1 171.29 10.93 128.71 10.93 Z" fill="#9e9ac8"/>
<path d="M 171.29 10.93 171.29 1 213.86 1 213.86 10.93 171.29 10.93 Z" fill="#807dba"/>
<path d="M 213.86 10.93 213.86 1 256.43 1 256.43 10.93 213.86 10.93 Z" fill="#6a51a3"/>
<path d="M 256.43 10.93 256.43 1 299 1 299 10.93 256.43 10.93 Z" fill="#4a1486"/>
</g>
<g id="layer9" fill="none" stroke="black" stroke-width="1">
<path d="M 43.57 1 43.57 16.89" stroke="rgba(0,0,0,0.3)"/>
<path d="M 86.14 1 86.14 16.89" stroke="rgba(0,0,0,0.3)"/>
<path d="M 128.71 1 128.71 16.89" stroke="rgba(0,0,0,0.3)"/>
<path d="M 171.29 1 171.29 16.89" stroke="rgba(0,0,0,0.3)"/>
<path d="M 213.86 1 213.86 16.89" stroke="rgba(0,0,0,0.3)"/>
<path d="M 256.43 1 256.43 16.89" stroke="rgba(0,0,0,0.3)"/>
</g>
<g id="layer10" font-family="sans-serif" font-size="12" text-anchor="middle">
<text y="0" x="0" transform="translate(43.5714 29.906)" font-family="sans-serif" font-size="13" text-anchor="middle" fill="#555">0.09</text>
<text y="0" x="0" transform="translate(86.1429 29.906)" font-family="sans-serif" font-size="13" text-anchor="middle" fill="#555">0.11</text>
<text y="0" x="0" transform="translate(128.7143 29.906)" font-family="sans-serif" font-size="13" text-anchor="middle" fill="#555">0.13</text>
<text y="0" x="0" transform="translate(171.2857 29.906)" font-family="sans-serif" font-size="13" text-anchor="middle" fill="#555">0.14</text>
<text y="0" x="0" transform="translate(213.8571 29.906)" font-family="sans-serif" font-size="13" text-anchor="middle" fill="#555">0.16</text>
<text y="0" x="0" transform="translate(256.4286 29.906)" font-family="sans-serif" font-size="13" text-anchor="middle" fill="#555">0.18</text>
</g>
</svg>